# xmcd CD database file
#
# Track frame offsets:
#	150
#	6101
#	6870
#	15297
#	31065
#	31794
#	37814
#	56693
#	77391
#	80526
#	96162
#	96737
#	110787
#	123081
#
# Disc length: 1677 seconds
#
# Revision: 0
# Processed by: cddbd v1.5.2PL0 Copyright (c) Steve Scherf et al.
# Submitted via: CDex 1.70beta3
#
DISCID=96068b0e
DTITLE=その名はスペィド - ダイヤル“S”をまわせ！
DYEAR=2009
DGENRE=Jazz
TTITLE0=オープニング - ダイヤル“S”をまわせ！
TTITLE1=レディ スペィド - アイキャッチ
TTITLE2=コールサイン
TTITLE3=わがままなわたし
TTITLE4=ジングル - ダイアル “S” パート１
TTITLE5=次のミッションの情報が届きました
TTITLE6=まわせ！運命のルーレット
TTITLE7=スパイごっこ
TTITLE8=真説 スパイごっこ
TTITLE9=スペィド vs 世界で二番目の男たち ～カーチェイス編～
TTITLE10=ジングル - ダイアル “S” パート２
TTITLE11=恋の運転免許証
TTITLE12=ひとりぼっちのスペィド
TTITLE13=エンディング - ダイヤル“S”をまわせ！
EXTD=YEAR: 2009
EXTT0=
EXTT1=
EXTT2=
EXTT3=
EXTT4=
EXTT5=
EXTT6=
EXTT7=
EXTT8=
EXTT9=
EXTT10=
EXTT11=
EXTT12=
EXTT13=
PLAYORDER=
